<svg width="15" height="15" viewBox="0 0 15 15" fill="none" xmlns="http://www.w3.org/2000/svg">
<path d="M12.8868 9.69668C12.1269 8.87982 11.2224 8.27511 10.2356 7.90904C11.2925 7.12649 11.9869 5.81684 11.9869 4.33594C11.9869 1.94511 10.1775 0 7.95349 0C5.72946 0 3.92006 1.94511 3.92006 4.33594C3.92006 5.81684 4.61444 7.12649 5.67139 7.90904C4.68456 8.27511 3.78009 8.87982 3.0202 9.69668C1.70246 11.1133 0.976746 12.9967 0.976746 15H2.06686C2.06686 11.5107 4.70759 8.67188 7.95349 8.67188C11.1994 8.67188 13.8401 11.5107 13.8401 15H14.9302C14.9302 12.9967 14.2045 11.1133 12.8868 9.69668ZM7.95349 7.5C6.33055 7.5 5.01018 6.08063 5.01018 4.33594C5.01018 2.59125 6.33055 1.17188 7.95349 1.17188C9.57643 1.17188 10.8968 2.59125 10.8968 4.33594C10.8968 6.08063 9.57643 7.5 7.95349 7.5Z" fill="black"/>
</svg>
